<svg width="48" height="48" viewBox="0 0 48 48" fill="none" xmlns="http://www.w3.org/2000/svg">
<rect width="48" height="48" fill="#DFDFDF"/>
<path d="M11.876 29H11.192L9.134 25.886V29H8.45V24.824H9.134L11.192 27.932V24.824H11.876V29ZM14.3282 29.054C14.0162 29.054 13.7342 28.984 13.4822 28.844C13.2302 28.7 13.0322 28.5 12.8882 28.244C12.7442 27.984 12.6722 27.684 12.6722 27.344C12.6722 27.008 12.7462 26.71 12.8942 26.45C13.0422 26.19 13.2442 25.99 13.5002 25.85C13.7562 25.71 14.0422 25.64 14.3582 25.64C14.6742 25.64 14.9602 25.71 15.2162 25.85C15.4722 25.99 15.6742 26.19 15.8222 26.45C15.9702 26.71 16.0442 27.008 16.0442 27.344C16.0442 27.68 15.9682 27.978 15.8162 28.238C15.6642 28.498 15.4562 28.7 15.1922 28.844C14.9322 28.984 14.6442 29.054 14.3282 29.054ZM14.3282 28.46C14.5042 28.46 14.6682 28.418 14.8202 28.334C14.9762 28.25 15.1022 28.124 15.1982 27.956C15.2942 27.788 15.3422 27.584 15.3422 27.344C15.3422 27.104 15.2962 26.902 15.2042 26.738C15.1122 26.57 14.9902 26.444 14.8382 26.36C14.6862 26.276 14.5222 26.234 14.3462 26.234C14.1702 26.234 14.0062 26.276 13.8542 26.36C13.7062 26.444 13.5882 26.57 13.5002 26.738C13.4122 26.902 13.3682 27.104 13.3682 27.344C13.3682 27.7 13.4582 27.976 13.6382 28.172C13.8222 28.364 14.0522 28.46 14.3282 28.46ZM17.6384 26.252V28.082C17.6384 28.206 17.6664 28.296 17.7224 28.352C17.7824 28.404 17.8824 28.43 18.0224 28.43H18.4424V29H17.9024C17.5944 29 17.3584 28.928 17.1944 28.784C17.0304 28.64 16.9484 28.406 16.9484 28.082V26.252H16.5584V25.694H16.9484V24.872H17.6384V25.694H18.4424V26.252H17.6384ZM23.3254 24.83V25.388H21.5554V26.618H22.9354V27.176H21.5554V29H20.8714V24.83H23.3254ZM25.5133 29.054C25.2013 29.054 24.9193 28.984 24.6673 28.844C24.4153 28.7 24.2173 28.5 24.0733 28.244C23.9293 27.984 23.8573 27.684 23.8573 27.344C23.8573 27.008 23.9313 26.71 24.0793 26.45C24.2273 26.19 24.4293 25.99 24.6853 25.85C24.9413 25.71 25.2273 25.64 25.5433 25.64C25.8593 25.64 26.1453 25.71 26.4013 25.85C26.6573 25.99 26.8593 26.19 27.0073 26.45C27.1553 26.71 27.2293 27.008 27.2293 27.344C27.2293 27.68 27.1533 27.978 27.0013 28.238C26.8493 28.498 26.6413 28.7 26.3773 28.844C26.1173 28.984 25.8293 29.054 25.5133 29.054ZM25.5133 28.46C25.6893 28.46 25.8533 28.418 26.0053 28.334C26.1613 28.25 26.2873 28.124 26.3833 27.956C26.4793 27.788 26.5273 27.584 26.5273 27.344C26.5273 27.104 26.4813 26.902 26.3893 26.738C26.2973 26.57 26.1753 26.444 26.0233 26.36C25.8713 26.276 25.7073 26.234 25.5313 26.234C25.3553 26.234 25.1913 26.276 25.0393 26.36C24.8913 26.444 24.7733 26.57 24.6853 26.738C24.5973 26.902 24.5533 27.104 24.5533 27.344C24.5533 27.7 24.6433 27.976 24.8233 28.172C25.0073 28.364 25.2373 28.46 25.5133 28.46ZM31.0195 25.694V29H30.3355V28.61C30.2275 28.746 30.0855 28.854 29.9095 28.934C29.7375 29.01 29.5535 29.048 29.3575 29.048C29.0975 29.048 28.8635 28.994 28.6555 28.886C28.4515 28.778 28.2895 28.618 28.1695 28.406C28.0535 28.194 27.9955 27.938 27.9955 27.638V25.694H28.6735V27.536C28.6735 27.832 28.7475 28.06 28.8955 28.22C29.0435 28.376 29.2455 28.454 29.5015 28.454C29.7575 28.454 29.9595 28.376 30.1075 28.22C30.2595 28.06 30.3355 27.832 30.3355 27.536V25.694H31.0195ZM33.71 25.64C33.97 25.64 34.202 25.694 34.406 25.802C34.614 25.91 34.776 26.07 34.892 26.282C35.008 26.494 35.066 26.75 35.066 27.05V29H34.388V27.152C34.388 26.856 34.314 26.63 34.166 26.474C34.018 26.314 33.816 26.234 33.56 26.234C33.304 26.234 33.1 26.314 32.948 26.474C32.8 26.63 32.726 26.856 32.726 27.152V29H32.042V25.694H32.726V26.072C32.838 25.936 32.98 25.83 33.152 25.754C33.328 25.678 33.514 25.64 33.71 25.64ZM35.8304 27.332C35.8304 27 35.8984 26.706 36.0344 26.45C36.1744 26.194 36.3624 25.996 36.5984 25.856C36.8384 25.712 37.1044 25.64 37.3964 25.64C37.6124 25.64 37.8244 25.688 38.0324 25.784C38.2444 25.876 38.4124 26 38.5364 26.156V24.56H39.2264V29H38.5364V28.502C38.4244 28.662 38.2684 28.794 38.0684 28.898C37.8724 29.002 37.6464 29.054 37.3904 29.054C37.1024 29.054 36.8384 28.982 36.5984 28.838C36.3624 28.69 36.1744 28.486 36.0344 28.226C35.8984 27.962 35.8304 27.664 35.8304 27.332ZM38.5364 27.344C38.5364 27.116 38.4884 26.918 38.3924 26.75C38.3004 26.582 38.1784 26.454 38.0264 26.366C37.8744 26.278 37.7104 26.234 37.5344 26.234C37.3584 26.234 37.1944 26.278 37.0424 26.366C36.8904 26.45 36.7664 26.576 36.6704 26.744C36.5784 26.908 36.5324 27.104 36.5324 27.332C36.5324 27.56 36.5784 27.76 36.6704 27.932C36.7664 28.104 36.8904 28.236 37.0424 28.328C37.1984 28.416 37.3624 28.46 37.5344 28.46C37.7104 28.46 37.8744 28.416 38.0264 28.328C38.1784 28.24 38.3004 28.112 38.3924 27.944C38.4884 27.772 38.5364 27.572 38.5364 27.344Z" fill="black"/>
<path d="M14.254 15.812V20H13.414V15.812H14.254ZM19.3319 16.628C19.7399 16.628 20.0679 16.754 20.3159 17.006C20.5679 17.254 20.6939 17.602 20.6939 18.05V20H19.8539V18.164C19.8539 17.904 19.7879 17.706 19.6559 17.57C19.5239 17.43 19.3439 17.36 19.1159 17.36C18.8879 17.36 18.7059 17.43 18.5699 17.57C18.4379 17.706 18.3719 17.904 18.3719 18.164V20H17.5319V18.164C17.5319 17.904 17.4659 17.706 17.3339 17.57C17.2019 17.43 17.0219 17.36 16.7939 17.36C16.5619 17.36 16.3779 17.43 16.2419 17.57C16.1099 17.706 16.0439 17.904 16.0439 18.164V20H15.2039V16.676H16.0439V17.078C16.1519 16.938 16.2899 16.828 16.4579 16.748C16.6299 16.668 16.8179 16.628 17.0219 16.628C17.2819 16.628 17.5139 16.684 17.7179 16.796C17.9219 16.904 18.0799 17.06 18.1919 17.264C18.2999 17.072 18.4559 16.918 18.6599 16.802C18.8679 16.686 19.0919 16.628 19.3319 16.628ZM21.395 18.326C21.395 17.99 21.461 17.692 21.593 17.432C21.729 17.172 21.911 16.972 22.139 16.832C22.371 16.692 22.629 16.622 22.913 16.622C23.161 16.622 23.377 16.672 23.561 16.772C23.749 16.872 23.899 16.998 24.011 17.15V16.676H24.857V20H24.011V19.514C23.903 19.67 23.753 19.8 23.561 19.904C23.373 20.004 23.155 20.054 22.907 20.054C22.627 20.054 22.371 19.982 22.139 19.838C21.911 19.694 21.729 19.492 21.593 19.232C21.461 18.968 21.395 18.666 21.395 18.326ZM24.011 18.338C24.011 18.134 23.971 17.96 23.891 17.816C23.811 17.668 23.703 17.556 23.567 17.48C23.431 17.4 23.285 17.36 23.129 17.36C22.973 17.36 22.829 17.398 22.697 17.474C22.565 17.55 22.457 17.662 22.373 17.81C22.293 17.954 22.253 18.126 22.253 18.326C22.253 18.526 22.293 18.702 22.373 18.854C22.457 19.002 22.565 19.116 22.697 19.196C22.833 19.276 22.977 19.316 23.129 19.316C23.285 19.316 23.431 19.278 23.567 19.202C23.703 19.122 23.811 19.01 23.891 18.866C23.971 18.718 24.011 18.542 24.011 18.338ZM27.0994 16.622C27.3474 16.622 27.5654 16.672 27.7534 16.772C27.9414 16.868 28.0894 16.994 28.1974 17.15V16.676H29.0434V20.024C29.0434 20.332 28.9814 20.606 28.8574 20.846C28.7334 21.09 28.5474 21.282 28.2994 21.422C28.0514 21.566 27.7514 21.638 27.3994 21.638C26.9274 21.638 26.5394 21.528 26.2354 21.308C25.9354 21.088 25.7654 20.788 25.7254 20.408H26.5594C26.6034 20.56 26.6974 20.68 26.8414 20.768C26.9894 20.86 27.1674 20.906 27.3754 20.906C27.6194 20.906 27.8174 20.832 27.9694 20.684C28.1214 20.54 28.1974 20.32 28.1974 20.024V19.508C28.0894 19.664 27.9394 19.794 27.7474 19.898C27.5594 20.002 27.3434 20.054 27.0994 20.054C26.8194 20.054 26.5634 19.982 26.3314 19.838C26.0994 19.694 25.9154 19.492 25.7794 19.232C25.6474 18.968 25.5814 18.666 25.5814 18.326C25.5814 17.99 25.6474 17.692 25.7794 17.432C25.9154 17.172 26.0974 16.972 26.3254 16.832C26.5574 16.692 26.8154 16.622 27.0994 16.622ZM28.1974 18.338C28.1974 18.134 28.1574 17.96 28.0774 17.816C27.9974 17.668 27.8894 17.556 27.7534 17.48C27.6174 17.4 27.4714 17.36 27.3154 17.36C27.1594 17.36 27.0154 17.398 26.8834 17.474C26.7514 17.55 26.6434 17.662 26.5594 17.81C26.4794 17.954 26.4394 18.126 26.4394 18.326C26.4394 18.526 26.4794 18.702 26.5594 18.854C26.6434 19.002 26.7514 19.116 26.8834 19.196C27.0194 19.276 27.1634 19.316 27.3154 19.316C27.4714 19.316 27.6174 19.278 27.7534 19.202C27.8894 19.122 27.9974 19.01 28.0774 18.866C28.1574 18.718 28.1974 18.542 28.1974 18.338ZM33.0738 18.266C33.0738 18.386 33.0658 18.494 33.0498 18.59H30.6198C30.6398 18.83 30.7238 19.018 30.8718 19.154C31.0198 19.29 31.2018 19.358 31.4178 19.358C31.7298 19.358 31.9518 19.224 32.0838 18.956H32.9898C32.8938 19.276 32.7098 19.54 32.4378 19.748C32.1658 19.952 31.8318 20.054 31.4358 20.054C31.1158 20.054 30.8278 19.984 30.5718 19.844C30.3198 19.7 30.1218 19.498 29.9778 19.238C29.8378 18.978 29.7678 18.678 29.7678 18.338C29.7678 17.994 29.8378 17.692 29.9778 17.432C30.1178 17.172 30.3138 16.972 30.5658 16.832C30.8178 16.692 31.1078 16.622 31.4358 16.622C31.7518 16.622 32.0338 16.69 32.2818 16.826C32.5338 16.962 32.7278 17.156 32.8638 17.408C33.0038 17.656 33.0738 17.942 33.0738 18.266ZM32.2038 18.026C32.1998 17.81 32.1218 17.638 31.9698 17.51C31.8178 17.378 31.6318 17.312 31.4118 17.312C31.2038 17.312 31.0278 17.376 30.8838 17.504C30.7438 17.628 30.6578 17.802 30.6258 18.026H32.2038Z" fill="black"/>
</svg>
